# xmcd CD database file
#
# Track frame offsets:
#	150
#	23259
#	53339
#	72506
#	97187
#	125452
#	148225
#	164361
#	189224
#	205640
#	235766
#	261742
#
# Disc length: 3857 seconds
#
# Revision: 0
# Processed by: cddbd v1.5.2PL0 Copyright (c) Steve Scherf et al.
# Submitted via: CDex 1.70beta2
#
DISCID=a50f0f0c
DTITLE=Rebecca Moore - Home Wreckordings
DYEAR=1999
DGENRE=Jazz
TTITLE0=Stiletto'd Young Stars
TTITLE1=This/ Past
TTITLE2=THAW
TTITLE3=Live in Blue Sparks
TTITLE4=Spectral Vapor in the Neural Machine
TTITLE5=CARToon Lust
TTITLE6=Somehow
TTITLE7=Joy will come (a.k.a. Joe will cum)
TTITLE8=Forest at night
TTITLE9=Fantasy (written by Earth, Wind and Fire 1977)
TTITLE10=Prevention of Blindness
TTITLE11=SISTER Marianne
EXTD=YEAR: 1999
EXTT0=
EXTT1=
EXTT2=
EXTT3=
EXTT4=
EXTT5=
EXTT6=
EXTT7=
EXTT8=
EXTT9=
EXTT10=
EXTT11=
PLAYORDER=
